<mxfile host="Electron" modified="2023-08-01T17:09:50.098Z" agent="Mozilla/5.0 (Macintosh; Intel Mac OS X 10_15_7) AppleWebKit/537.36 (KHTML, like Gecko) draw.io/21.6.1 Chrome/112.0.5615.204 Electron/24.6.1 Safari/537.36" etag="IEzjxUhMMT8Wyk6vbT_z" version="21.6.1" type="device">
  <diagram name="Page-1" id="pDXnDWw5rO93SfaOLtf0">
    <mxGraphModel dx="1257" dy="2026" grid="1" gridSize="10" guides="1" tooltips="1" connect="1" arrows="1" fold="1" page="1" pageScale="1" pageWidth="850" pageHeight="1100" math="0" shadow="0">
      <root>
        <mxCell id="0" />
        <mxCell id="1" parent="0" />
        <mxCell id="psEYaUKP_F06JMTKpm58-8" value="" style="rounded=0;whiteSpace=wrap;html=1;fillColor=#CCE5FF;" parent="1" vertex="1">
          <mxGeometry x="80" y="255" width="370" height="190" as="geometry" />
        </mxCell>
        <mxCell id="psEYaUKP_F06JMTKpm58-5" value="Zone 1" style="shape=mxgraph.ibm.box;prType=zone;fontStyle=0;verticalAlign=top;align=left;spacingLeft=32;spacingTop=4;fillColor=#E0E0E0;rounded=0;whiteSpace=wrap;html=1;strokeColor=#919191;strokeWidth=1;dashed=0;container=1;spacing=-4;collapsible=0;expand=0;recursiveResize=0;" parent="1" vertex="1">
          <mxGeometry x="90" y="270" width="170" height="120" as="geometry" />
        </mxCell>
        <mxCell id="psEYaUKP_F06JMTKpm58-3" value="www-1" style="aspect=fixed;html=1;points=[];align=center;image;fontSize=12;image=img/lib/azure2/compute/Virtual_Machine.svg;" parent="psEYaUKP_F06JMTKpm58-5" vertex="1">
          <mxGeometry x="20" y="40" width="58.22" height="54" as="geometry" />
        </mxCell>
        <mxCell id="psEYaUKP_F06JMTKpm58-6" value="www-2" style="aspect=fixed;html=1;points=[];align=center;image;fontSize=12;image=img/lib/azure2/compute/Virtual_Machine.svg;" parent="psEYaUKP_F06JMTKpm58-5" vertex="1">
          <mxGeometry x="90" y="40" width="58.22" height="54" as="geometry" />
        </mxCell>
        <mxCell id="psEYaUKP_F06JMTKpm58-4" value="" style="aspect=fixed;html=1;points=[];align=center;image;fontSize=12;image=img/lib/azure2/networking/Virtual_Networks.svg;" parent="1" vertex="1">
          <mxGeometry x="80" y="430" width="37" height="22.09" as="geometry" />
        </mxCell>
        <mxCell id="psEYaUKP_F06JMTKpm58-9" value="Zone 2" style="shape=mxgraph.ibm.box;prType=zone;fontStyle=0;verticalAlign=top;align=left;spacingLeft=32;spacingTop=4;fillColor=#E0E0E0;rounded=0;whiteSpace=wrap;html=1;strokeColor=#919191;strokeWidth=1;dashed=0;container=1;spacing=-4;collapsible=0;expand=0;recursiveResize=0;" parent="1" vertex="1">
          <mxGeometry x="270" y="270" width="170" height="120" as="geometry" />
        </mxCell>
        <mxCell id="psEYaUKP_F06JMTKpm58-10" value="www-3" style="aspect=fixed;html=1;points=[];align=center;image;fontSize=12;image=img/lib/azure2/compute/Virtual_Machine.svg;" parent="psEYaUKP_F06JMTKpm58-9" vertex="1">
          <mxGeometry x="20" y="40" width="58.22" height="54" as="geometry" />
        </mxCell>
        <mxCell id="psEYaUKP_F06JMTKpm58-11" value="www-4" style="aspect=fixed;html=1;points=[];align=center;image;fontSize=12;image=img/lib/azure2/compute/Virtual_Machine.svg;" parent="psEYaUKP_F06JMTKpm58-9" vertex="1">
          <mxGeometry x="90" y="40" width="58.22" height="54" as="geometry" />
        </mxCell>
        <mxCell id="psEYaUKP_F06JMTKpm58-14" value="WWW VNet" style="text;html=1;align=center;verticalAlign=middle;resizable=0;points=[];autosize=1;strokeColor=none;fillColor=none;fontSize=17;" parent="1" vertex="1">
          <mxGeometry x="210" y="445" width="110" height="30" as="geometry" />
        </mxCell>
        <mxCell id="psEYaUKP_F06JMTKpm58-15" value="" style="endArrow=classic;html=1;rounded=0;entryX=0.498;entryY=0;entryDx=0;entryDy=0;entryPerimeter=0;fillColor=#d5e8d4;strokeColor=#82b366;strokeWidth=4;" parent="1" target="psEYaUKP_F06JMTKpm58-10" edge="1">
          <mxGeometry width="50" height="50" relative="1" as="geometry">
            <mxPoint x="260" y="230" as="sourcePoint" />
            <mxPoint x="500" y="440" as="targetPoint" />
          </mxGeometry>
        </mxCell>
        <mxCell id="psEYaUKP_F06JMTKpm58-16" value="" style="sketch=0;aspect=fixed;html=1;points=[];align=center;image;fontSize=12;image=img/lib/mscae/Load_Balancer_feature.svg;fillColor=#CCE5FF;" parent="1" vertex="1">
          <mxGeometry x="240" y="180" width="50" height="50" as="geometry" />
        </mxCell>
        <mxCell id="psEYaUKP_F06JMTKpm58-17" value="" style="endArrow=classic;html=1;rounded=0;fillColor=#d5e8d4;strokeColor=#82b366;strokeWidth=4;entryX=0.601;entryY=0;entryDx=0;entryDy=0;entryPerimeter=0;" parent="1" target="psEYaUKP_F06JMTKpm58-11" edge="1">
          <mxGeometry width="50" height="50" relative="1" as="geometry">
            <mxPoint x="260" y="230" as="sourcePoint" />
            <mxPoint x="303.9935599999999" y="305" as="targetPoint" />
          </mxGeometry>
        </mxCell>
        <mxCell id="psEYaUKP_F06JMTKpm58-18" value="" style="endArrow=classic;html=1;rounded=0;exitX=0.48;exitY=1.06;exitDx=0;exitDy=0;exitPerimeter=0;fillColor=#d5e8d4;strokeColor=#82b366;strokeWidth=4;entryX=0.464;entryY=0.019;entryDx=0;entryDy=0;entryPerimeter=0;" parent="1" source="psEYaUKP_F06JMTKpm58-16" target="psEYaUKP_F06JMTKpm58-6" edge="1">
          <mxGeometry width="50" height="50" relative="1" as="geometry">
            <mxPoint x="285" y="245" as="sourcePoint" />
            <mxPoint x="338.9935599999999" y="330" as="targetPoint" />
          </mxGeometry>
        </mxCell>
        <mxCell id="psEYaUKP_F06JMTKpm58-19" value="" style="endArrow=classic;html=1;rounded=0;entryX=0.498;entryY=0;entryDx=0;entryDy=0;entryPerimeter=0;fillColor=#d5e8d4;strokeColor=#82b366;strokeWidth=4;" parent="1" target="psEYaUKP_F06JMTKpm58-3" edge="1">
          <mxGeometry width="50" height="50" relative="1" as="geometry">
            <mxPoint x="260" y="230" as="sourcePoint" />
            <mxPoint x="348.9935599999999" y="340" as="targetPoint" />
          </mxGeometry>
        </mxCell>
        <mxCell id="psEYaUKP_F06JMTKpm58-20" value="10.1.0.0/16" style="text;html=1;align=center;verticalAlign=middle;resizable=0;points=[];autosize=1;strokeColor=none;fillColor=none;fontSize=19;" parent="1" vertex="1">
          <mxGeometry x="205" y="390" width="120" height="40" as="geometry" />
        </mxCell>
        <mxCell id="MpkBA5lqzlr4u1xdEffK-26" style="rounded=0;orthogonalLoop=1;jettySize=auto;html=1;strokeWidth=2;strokeColor=#3399FF;" parent="1" target="psEYaUKP_F06JMTKpm58-16" edge="1">
          <mxGeometry relative="1" as="geometry">
            <mxPoint x="265" y="100" as="sourcePoint" />
          </mxGeometry>
        </mxCell>
        <mxCell id="psEYaUKP_F06JMTKpm58-21" value="Internet" style="ellipse;shape=cloud;whiteSpace=wrap;html=1;fontSize=19;" parent="1" vertex="1">
          <mxGeometry x="140" y="-20" width="245" height="130" as="geometry" />
        </mxCell>
        <mxCell id="MpkBA5lqzlr4u1xdEffK-1" value="" style="rounded=0;whiteSpace=wrap;html=1;fillColor=#CCE5FF;" parent="1" vertex="1">
          <mxGeometry x="480" y="255" width="510" height="295" as="geometry" />
        </mxCell>
        <mxCell id="MpkBA5lqzlr4u1xdEffK-2" value="Firewall VNet" style="text;html=1;align=center;verticalAlign=middle;resizable=0;points=[];autosize=1;strokeColor=none;fillColor=none;fontSize=17;" parent="1" vertex="1">
          <mxGeometry x="674.11" y="557.91" width="120" height="30" as="geometry" />
        </mxCell>
        <mxCell id="MpkBA5lqzlr4u1xdEffK-3" value="Zone 1" style="shape=mxgraph.ibm.box;prType=zone;fontStyle=0;verticalAlign=top;align=left;spacingLeft=32;spacingTop=4;fillColor=#E0E0E0;rounded=0;whiteSpace=wrap;html=1;strokeColor=#919191;strokeWidth=1;dashed=0;container=1;spacing=-4;collapsible=0;expand=0;recursiveResize=0;" parent="1" vertex="1">
          <mxGeometry x="490" y="270" width="110" height="120" as="geometry" />
        </mxCell>
        <mxCell id="MpkBA5lqzlr4u1xdEffK-9" value="fw-1" style="sketch=0;pointerEvents=1;shadow=0;dashed=0;html=1;strokeColor=none;labelPosition=center;verticalLabelPosition=bottom;verticalAlign=top;outlineConnect=0;align=center;shape=mxgraph.office.concepts.firewall;fillColor=#DA4026;" parent="MpkBA5lqzlr4u1xdEffK-3" vertex="1">
          <mxGeometry x="30" y="40" width="47" height="43" as="geometry" />
        </mxCell>
        <mxCell id="MpkBA5lqzlr4u1xdEffK-6" value="Zone 2" style="shape=mxgraph.ibm.box;prType=zone;fontStyle=0;verticalAlign=top;align=left;spacingLeft=32;spacingTop=4;fillColor=#E0E0E0;rounded=0;whiteSpace=wrap;html=1;strokeColor=#919191;strokeWidth=1;dashed=0;container=1;spacing=-4;collapsible=0;expand=0;recursiveResize=0;" parent="1" vertex="1">
          <mxGeometry x="610" y="270" width="100" height="120" as="geometry" />
        </mxCell>
        <mxCell id="MpkBA5lqzlr4u1xdEffK-10" value="fw-2" style="sketch=0;pointerEvents=1;shadow=0;dashed=0;html=1;strokeColor=none;labelPosition=center;verticalLabelPosition=bottom;verticalAlign=top;outlineConnect=0;align=center;shape=mxgraph.office.concepts.firewall;fillColor=#DA4026;" parent="MpkBA5lqzlr4u1xdEffK-6" vertex="1">
          <mxGeometry x="23.61" y="38.5" width="47" height="43" as="geometry" />
        </mxCell>
        <mxCell id="gl-uLo3om1zxJ34Bp_yc-21" value="" style="edgeStyle=orthogonalEdgeStyle;rounded=0;orthogonalLoop=1;jettySize=auto;html=1;" edge="1" parent="1" source="MpkBA5lqzlr4u1xdEffK-11" target="MpkBA5lqzlr4u1xdEffK-25">
          <mxGeometry relative="1" as="geometry" />
        </mxCell>
        <mxCell id="MpkBA5lqzlr4u1xdEffK-12" value="10.100.10.0/24" style="text;html=1;align=center;verticalAlign=middle;resizable=0;points=[];autosize=1;strokeColor=none;fillColor=none;fontSize=19;" parent="1" vertex="1">
          <mxGeometry x="674.11" y="510" width="150" height="40" as="geometry" />
        </mxCell>
        <mxCell id="MpkBA5lqzlr4u1xdEffK-19" value="" style="rounded=0;whiteSpace=wrap;html=1;fillColor=#dae8fc;strokeColor=#6c8ebf;gradientColor=#3399FF;" parent="1" vertex="1">
          <mxGeometry x="290" y="200" width="290" height="10" as="geometry" />
        </mxCell>
        <mxCell id="MpkBA5lqzlr4u1xdEffK-20" value="Service Chaining" style="text;html=1;align=center;verticalAlign=middle;resizable=0;points=[];autosize=1;strokeColor=none;fillColor=none;" parent="1" vertex="1">
          <mxGeometry x="461" y="155" width="110" height="30" as="geometry" />
        </mxCell>
        <mxCell id="MpkBA5lqzlr4u1xdEffK-21" value="" style="aspect=fixed;html=1;points=[];align=center;image;fontSize=12;image=img/lib/azure2/networking/Virtual_Networks.svg;" parent="1" vertex="1">
          <mxGeometry x="481.48" y="528" width="37" height="22.09" as="geometry" />
        </mxCell>
        <mxCell id="MpkBA5lqzlr4u1xdEffK-22" value="" style="rounded=0;whiteSpace=wrap;html=1;fillColor=default;strokeColor=none;gradientColor=#FF9933;rotation=-55;" parent="1" vertex="1">
          <mxGeometry x="502.87" y="255.9" width="105" height="10" as="geometry" />
        </mxCell>
        <mxCell id="MpkBA5lqzlr4u1xdEffK-23" value="" style="rounded=0;whiteSpace=wrap;html=1;fillColor=default;strokeColor=none;gradientColor=#00CC00;rotation=-55;" parent="1" vertex="1">
          <mxGeometry x="518.48" y="262.98" width="97.87" height="10" as="geometry" />
        </mxCell>
        <mxCell id="MpkBA5lqzlr4u1xdEffK-24" value="" style="rounded=0;whiteSpace=wrap;html=1;fillColor=default;strokeColor=none;gradientColor=#FF9933;rotation=-125;" parent="1" vertex="1">
          <mxGeometry x="600" y="255" width="105" height="10" as="geometry" />
        </mxCell>
        <mxCell id="MpkBA5lqzlr4u1xdEffK-25" value="" style="rounded=0;whiteSpace=wrap;html=1;fillColor=default;strokeColor=none;gradientColor=#00CC00;rotation=235;" parent="1" vertex="1">
          <mxGeometry x="590" y="260" width="97.87" height="10" as="geometry" />
        </mxCell>
        <mxCell id="MpkBA5lqzlr4u1xdEffK-27" value="Internal/External&lt;br style=&quot;font-size: 16px;&quot;&gt;VXLAN Tunnels" style="text;html=1;align=center;verticalAlign=middle;resizable=0;points=[];autosize=1;strokeColor=none;fillColor=none;fontSize=16;" parent="1" vertex="1">
          <mxGeometry x="638.22" y="142.09" width="140" height="50" as="geometry" />
        </mxCell>
        <mxCell id="MpkBA5lqzlr4u1xdEffK-28" value="" style="endArrow=classic;html=1;rounded=0;strokeColor=#b85450;strokeWidth=3;fontSize=16;exitX=0.458;exitY=1.02;exitDx=0;exitDy=0;exitPerimeter=0;fillColor=#f8cecc;" parent="1" source="MpkBA5lqzlr4u1xdEffK-27" edge="1">
          <mxGeometry width="50" height="50" relative="1" as="geometry">
            <mxPoint x="530" y="430" as="sourcePoint" />
            <mxPoint x="640" y="230" as="targetPoint" />
          </mxGeometry>
        </mxCell>
        <mxCell id="gl-uLo3om1zxJ34Bp_yc-1" value="" style="rounded=0;whiteSpace=wrap;html=1;fillColor=#CCE5FF;" vertex="1" parent="1">
          <mxGeometry x="510" y="-55" width="330" height="190" as="geometry" />
        </mxCell>
        <mxCell id="gl-uLo3om1zxJ34Bp_yc-2" value="" style="aspect=fixed;html=1;points=[];align=center;image;fontSize=12;image=img/lib/azure2/networking/Virtual_Networks.svg;" vertex="1" parent="1">
          <mxGeometry x="508" y="120" width="37" height="22.09" as="geometry" />
        </mxCell>
        <mxCell id="gl-uLo3om1zxJ34Bp_yc-4" value="public" style="aspect=fixed;html=1;points=[];align=center;image;fontSize=12;image=img/lib/azure2/compute/Virtual_Machine.svg;" vertex="1" parent="1">
          <mxGeometry x="580" width="58.22" height="54" as="geometry" />
        </mxCell>
        <mxCell id="gl-uLo3om1zxJ34Bp_yc-6" value="" style="image;aspect=fixed;html=1;points=[];align=center;fontSize=12;image=img/lib/azure2/networking/Network_Interfaces.svg;" vertex="1" parent="1">
          <mxGeometry x="589.11" y="80" width="34" height="30" as="geometry" />
        </mxCell>
        <mxCell id="gl-uLo3om1zxJ34Bp_yc-9" value="" style="rounded=0;whiteSpace=wrap;html=1;fillColor=#dae8fc;strokeColor=#6c8ebf;gradientColor=#3399FF;rotation=90;" vertex="1" parent="1">
          <mxGeometry x="565" y="142.09" width="80" height="10" as="geometry" />
        </mxCell>
        <mxCell id="gl-uLo3om1zxJ34Bp_yc-3" value="Servers VNET" style="text;html=1;align=center;verticalAlign=middle;resizable=0;points=[];autosize=1;strokeColor=none;fillColor=none;fontSize=17;" vertex="1" parent="1">
          <mxGeometry x="607.87" y="-90" width="130" height="30" as="geometry" />
        </mxCell>
        <mxCell id="gl-uLo3om1zxJ34Bp_yc-12" value="Zone 1" style="shape=mxgraph.ibm.box;prType=zone;fontStyle=0;verticalAlign=top;align=left;spacingLeft=32;spacingTop=4;fillColor=#E0E0E0;rounded=0;whiteSpace=wrap;html=1;strokeColor=#919191;strokeWidth=1;dashed=0;container=1;spacing=-4;collapsible=0;expand=0;recursiveResize=0;" vertex="1" parent="1">
          <mxGeometry x="750" y="270" width="110" height="120" as="geometry" />
        </mxCell>
        <mxCell id="gl-uLo3om1zxJ34Bp_yc-13" value="fw-nlb-1" style="sketch=0;pointerEvents=1;shadow=0;dashed=0;html=1;strokeColor=none;labelPosition=center;verticalLabelPosition=bottom;verticalAlign=top;outlineConnect=0;align=center;shape=mxgraph.office.concepts.firewall;fillColor=#DA4026;" vertex="1" parent="gl-uLo3om1zxJ34Bp_yc-12">
          <mxGeometry x="30" y="40" width="47" height="43" as="geometry" />
        </mxCell>
        <mxCell id="gl-uLo3om1zxJ34Bp_yc-14" value="Zone 2" style="shape=mxgraph.ibm.box;prType=zone;fontStyle=0;verticalAlign=top;align=left;spacingLeft=32;spacingTop=4;fillColor=#E0E0E0;rounded=0;whiteSpace=wrap;html=1;strokeColor=#919191;strokeWidth=1;dashed=0;container=1;spacing=-4;collapsible=0;expand=0;recursiveResize=0;" vertex="1" parent="1">
          <mxGeometry x="870" y="270" width="100" height="120" as="geometry" />
        </mxCell>
        <mxCell id="gl-uLo3om1zxJ34Bp_yc-15" value="fw-nlb-2" style="sketch=0;pointerEvents=1;shadow=0;dashed=0;html=1;strokeColor=none;labelPosition=center;verticalLabelPosition=bottom;verticalAlign=top;outlineConnect=0;align=center;shape=mxgraph.office.concepts.firewall;fillColor=#DA4026;" vertex="1" parent="gl-uLo3om1zxJ34Bp_yc-14">
          <mxGeometry x="23.61" y="38.5" width="47" height="43" as="geometry" />
        </mxCell>
        <mxCell id="gl-uLo3om1zxJ34Bp_yc-17" value="ILB" style="sketch=0;aspect=fixed;html=1;points=[];align=center;image;fontSize=12;image=img/lib/mscae/Load_Balancer_feature.svg;fillColor=#CCE5FF;" vertex="1" parent="1">
          <mxGeometry x="840" y="425" width="50" height="50" as="geometry" />
        </mxCell>
        <mxCell id="gl-uLo3om1zxJ34Bp_yc-19" value="" style="endArrow=classic;html=1;rounded=0;fillColor=#d5e8d4;strokeColor=#82b366;strokeWidth=4;exitX=0.6;exitY=0.1;exitDx=0;exitDy=0;exitPerimeter=0;" edge="1" parent="1" source="gl-uLo3om1zxJ34Bp_yc-17" target="gl-uLo3om1zxJ34Bp_yc-13">
          <mxGeometry width="50" height="50" relative="1" as="geometry">
            <mxPoint x="860" y="425" as="sourcePoint" />
            <mxPoint x="995" y="505" as="targetPoint" />
          </mxGeometry>
        </mxCell>
        <mxCell id="gl-uLo3om1zxJ34Bp_yc-20" value="" style="endArrow=classic;html=1;rounded=0;fillColor=#d5e8d4;strokeColor=#82b366;strokeWidth=4;exitX=0.58;exitY=-0.04;exitDx=0;exitDy=0;exitPerimeter=0;" edge="1" parent="1" source="gl-uLo3om1zxJ34Bp_yc-17" target="gl-uLo3om1zxJ34Bp_yc-15">
          <mxGeometry width="50" height="50" relative="1" as="geometry">
            <mxPoint x="880" y="440" as="sourcePoint" />
            <mxPoint x="828" y="363" as="targetPoint" />
          </mxGeometry>
        </mxCell>
        <mxCell id="MpkBA5lqzlr4u1xdEffK-11" value="GWLB" style="sketch=0;aspect=fixed;html=1;points=[];align=center;image;fontSize=12;image=img/lib/mscae/Load_Balancer_feature.svg;fillColor=#CCE5FF;" parent="1" vertex="1">
          <mxGeometry x="580" y="180" width="50" height="50" as="geometry" />
        </mxCell>
        <mxCell id="gl-uLo3om1zxJ34Bp_yc-23" value="" style="endArrow=classic;html=1;rounded=0;fillColor=#d5e8d4;strokeColor=#82b366;strokeWidth=4;exitX=0.48;exitY=1.12;exitDx=0;exitDy=0;exitPerimeter=0;" edge="1" parent="1" source="gl-uLo3om1zxJ34Bp_yc-22" target="gl-uLo3om1zxJ34Bp_yc-13">
          <mxGeometry width="50" height="50" relative="1" as="geometry">
            <mxPoint x="880" y="440" as="sourcePoint" />
            <mxPoint x="828" y="363" as="targetPoint" />
          </mxGeometry>
        </mxCell>
        <mxCell id="gl-uLo3om1zxJ34Bp_yc-24" value="" style="endArrow=classic;html=1;rounded=0;fillColor=#d5e8d4;strokeColor=#82b366;strokeWidth=4;exitX=0.5;exitY=1;exitDx=0;exitDy=0;exitPerimeter=0;" edge="1" parent="1" source="gl-uLo3om1zxJ34Bp_yc-22" target="gl-uLo3om1zxJ34Bp_yc-15">
          <mxGeometry width="50" height="50" relative="1" as="geometry">
            <mxPoint x="864" y="246" as="sourcePoint" />
            <mxPoint x="825" y="320" as="targetPoint" />
          </mxGeometry>
        </mxCell>
        <mxCell id="gl-uLo3om1zxJ34Bp_yc-22" value="ELB" style="sketch=0;aspect=fixed;html=1;points=[];align=center;image;fontSize=12;image=img/lib/mscae/Load_Balancer_feature.svg;fillColor=#CCE5FF;" vertex="1" parent="1">
          <mxGeometry x="830" y="180" width="50" height="50" as="geometry" />
        </mxCell>
        <mxCell id="gl-uLo3om1zxJ34Bp_yc-26" style="edgeStyle=orthogonalEdgeStyle;rounded=0;orthogonalLoop=1;jettySize=auto;html=1;strokeWidth=4;fillColor=#e1d5e7;strokeColor=#9673a6;" edge="1" parent="1" source="gl-uLo3om1zxJ34Bp_yc-25" target="gl-uLo3om1zxJ34Bp_yc-17">
          <mxGeometry relative="1" as="geometry">
            <Array as="points">
              <mxPoint x="1040" y="27" />
              <mxPoint x="1040" y="450" />
            </Array>
          </mxGeometry>
        </mxCell>
        <mxCell id="gl-uLo3om1zxJ34Bp_yc-25" value="private" style="aspect=fixed;html=1;points=[];align=center;image;fontSize=12;image=img/lib/azure2/compute/Virtual_Machine.svg;" vertex="1" parent="1">
          <mxGeometry x="720" width="58.22" height="54" as="geometry" />
        </mxCell>
        <mxCell id="gl-uLo3om1zxJ34Bp_yc-27" value="UDR&lt;br&gt;0.0.0.0/0&lt;br&gt;10.2.1.0/24" style="text;html=1;align=center;verticalAlign=middle;resizable=0;points=[];autosize=1;strokeColor=none;fillColor=none;" vertex="1" parent="1">
          <mxGeometry x="880" y="30" width="80" height="60" as="geometry" />
        </mxCell>
        <mxCell id="gl-uLo3om1zxJ34Bp_yc-28" value="FMC" style="outlineConnect=0;dashed=0;verticalLabelPosition=bottom;verticalAlign=top;align=center;html=1;shape=mxgraph.aws3.management_console;fillColor=#F58534;gradientColor=none;" vertex="1" parent="1">
          <mxGeometry x="729.11" y="430" width="40" height="45" as="geometry" />
        </mxCell>
        <mxCell id="gl-uLo3om1zxJ34Bp_yc-29" value="10.2.1.0/24" style="text;html=1;align=center;verticalAlign=middle;resizable=0;points=[];autosize=1;strokeColor=none;fillColor=none;fontSize=19;" vertex="1" parent="1">
          <mxGeometry x="546.11" y="-50" width="120" height="40" as="geometry" />
        </mxCell>
        <mxCell id="gl-uLo3om1zxJ34Bp_yc-30" value="10.2.2.0/24" style="text;html=1;align=center;verticalAlign=middle;resizable=0;points=[];autosize=1;strokeColor=none;fillColor=none;fontSize=19;" vertex="1" parent="1">
          <mxGeometry x="687.87" y="-50" width="120" height="40" as="geometry" />
        </mxCell>
        <mxCell id="gl-uLo3om1zxJ34Bp_yc-31" style="edgeStyle=orthogonalEdgeStyle;rounded=0;orthogonalLoop=1;jettySize=auto;html=1;strokeWidth=4;fillColor=#e1d5e7;strokeColor=#9673a6;" edge="1" parent="1" source="gl-uLo3om1zxJ34Bp_yc-4" target="gl-uLo3om1zxJ34Bp_yc-17">
          <mxGeometry relative="1" as="geometry">
            <mxPoint x="600" y="-190" as="sourcePoint" />
            <mxPoint x="982" y="230" as="targetPoint" />
            <Array as="points">
              <mxPoint x="609" y="-120" />
              <mxPoint x="1132" y="-120" />
              <mxPoint x="1132" y="470" />
            </Array>
          </mxGeometry>
        </mxCell>
        <mxCell id="gl-uLo3om1zxJ34Bp_yc-32" value="UDR&lt;br&gt;10.2.2.0/24" style="text;html=1;align=center;verticalAlign=middle;resizable=0;points=[];autosize=1;strokeColor=none;fillColor=none;" vertex="1" parent="1">
          <mxGeometry x="880" y="-120" width="80" height="40" as="geometry" />
        </mxCell>
      </root>
    </mxGraphModel>
  </diagram>
</mxfile>
